<mxfile host="app.diagrams.net" modified="2024-02-04T16:36:20.945Z" agent="Mozilla/5.0 (Windows NT 10.0; Win64; x64) AppleWebKit/537.36 (KHTML, like Gecko) Chrome/121.0.0.0 Safari/537.36" etag="tKGQtUDajle61QOv54XB" version="23.1.1" type="github">
  <diagram id="C5RBs43oDa-KdzZeNtuy" name="Page-1">
    <mxGraphModel dx="880" dy="434" grid="1" gridSize="10" guides="1" tooltips="1" connect="1" arrows="1" fold="1" page="1" pageScale="1" pageWidth="827" pageHeight="1169" math="0" shadow="0">
      <root>
        <mxCell id="WIyWlLk6GJQsqaUBKTNV-0" />
        <mxCell id="WIyWlLk6GJQsqaUBKTNV-1" parent="WIyWlLk6GJQsqaUBKTNV-0" />
        <mxCell id="iy436ZLBz4zsPdI52_lR-13" style="rounded=0;orthogonalLoop=1;jettySize=auto;html=1;exitX=0.5;exitY=1;exitDx=0;exitDy=0;exitPerimeter=0;entryX=0.5;entryY=0;entryDx=0;entryDy=0;strokeColor=#23445D;" edge="1" parent="WIyWlLk6GJQsqaUBKTNV-1" source="iy436ZLBz4zsPdI52_lR-0" target="iy436ZLBz4zsPdI52_lR-1">
          <mxGeometry relative="1" as="geometry" />
        </mxCell>
        <mxCell id="iy436ZLBz4zsPdI52_lR-0" value="START" style="strokeWidth=2;html=1;shape=mxgraph.flowchart.terminator;whiteSpace=wrap;labelBackgroundColor=none;fillColor=#182E3E;strokeColor=#FFFFFF;fontColor=#FFFFFF;" vertex="1" parent="WIyWlLk6GJQsqaUBKTNV-1">
          <mxGeometry x="320" y="20" width="170" height="60" as="geometry" />
        </mxCell>
        <mxCell id="iy436ZLBz4zsPdI52_lR-1" value="INPUT nilai" style="shape=parallelogram;html=1;strokeWidth=2;perimeter=parallelogramPerimeter;whiteSpace=wrap;rounded=1;arcSize=12;size=0.23;labelBackgroundColor=none;fillColor=#182E3E;strokeColor=#FFFFFF;fontColor=#FFFFFF;" vertex="1" parent="WIyWlLk6GJQsqaUBKTNV-1">
          <mxGeometry x="310" y="130" width="190" height="60" as="geometry" />
        </mxCell>
        <mxCell id="iy436ZLBz4zsPdI52_lR-23" style="edgeStyle=orthogonalEdgeStyle;rounded=0;orthogonalLoop=1;jettySize=auto;html=1;exitX=1;exitY=0.5;exitDx=0;exitDy=0;exitPerimeter=0;entryX=0;entryY=0.5;entryDx=0;entryDy=0;strokeColor=#23445D;" edge="1" parent="WIyWlLk6GJQsqaUBKTNV-1" source="iy436ZLBz4zsPdI52_lR-2" target="iy436ZLBz4zsPdI52_lR-3">
          <mxGeometry relative="1" as="geometry" />
        </mxCell>
        <mxCell id="iy436ZLBz4zsPdI52_lR-2" value="nilai &amp;lt; 60" style="strokeWidth=2;html=1;shape=mxgraph.flowchart.decision;whiteSpace=wrap;labelBackgroundColor=none;fillColor=#182E3E;strokeColor=#FFFFFF;fontColor=#FFFFFF;" vertex="1" parent="WIyWlLk6GJQsqaUBKTNV-1">
          <mxGeometry x="330" y="240" width="150" height="110" as="geometry" />
        </mxCell>
        <mxCell id="iy436ZLBz4zsPdI52_lR-25" style="edgeStyle=elbowEdgeStyle;rounded=0;orthogonalLoop=1;jettySize=auto;html=1;exitX=1;exitY=0.5;exitDx=0;exitDy=0;strokeColor=#23445D;" edge="1" parent="WIyWlLk6GJQsqaUBKTNV-1" source="iy436ZLBz4zsPdI52_lR-3" target="iy436ZLBz4zsPdI52_lR-10">
          <mxGeometry relative="1" as="geometry">
            <Array as="points">
              <mxPoint x="770" y="670" />
            </Array>
          </mxGeometry>
        </mxCell>
        <mxCell id="iy436ZLBz4zsPdI52_lR-3" value="nilai = D" style="rounded=1;whiteSpace=wrap;html=1;absoluteArcSize=1;arcSize=14;strokeWidth=2;labelBackgroundColor=none;fillColor=#182E3E;strokeColor=#FFFFFF;fontColor=#FFFFFF;" vertex="1" parent="WIyWlLk6GJQsqaUBKTNV-1">
          <mxGeometry x="550" y="267.5" width="120" height="55" as="geometry" />
        </mxCell>
        <mxCell id="iy436ZLBz4zsPdI52_lR-26" style="edgeStyle=elbowEdgeStyle;rounded=0;orthogonalLoop=1;jettySize=auto;html=1;exitX=1;exitY=0.5;exitDx=0;exitDy=0;exitPerimeter=0;entryX=0;entryY=0.5;entryDx=0;entryDy=0;strokeColor=#23445D;" edge="1" parent="WIyWlLk6GJQsqaUBKTNV-1" source="iy436ZLBz4zsPdI52_lR-4" target="iy436ZLBz4zsPdI52_lR-7">
          <mxGeometry relative="1" as="geometry" />
        </mxCell>
        <mxCell id="iy436ZLBz4zsPdI52_lR-4" value="nilai &amp;lt; 75" style="strokeWidth=2;html=1;shape=mxgraph.flowchart.decision;whiteSpace=wrap;labelBackgroundColor=none;fillColor=#182E3E;strokeColor=#FFFFFF;fontColor=#FFFFFF;" vertex="1" parent="WIyWlLk6GJQsqaUBKTNV-1">
          <mxGeometry x="330" y="400" width="150" height="110" as="geometry" />
        </mxCell>
        <mxCell id="iy436ZLBz4zsPdI52_lR-27" style="edgeStyle=elbowEdgeStyle;rounded=0;orthogonalLoop=1;jettySize=auto;html=1;exitX=1;exitY=0.5;exitDx=0;exitDy=0;exitPerimeter=0;entryX=0;entryY=0.5;entryDx=0;entryDy=0;strokeColor=#23445D;" edge="1" parent="WIyWlLk6GJQsqaUBKTNV-1" source="iy436ZLBz4zsPdI52_lR-5" target="iy436ZLBz4zsPdI52_lR-8">
          <mxGeometry relative="1" as="geometry" />
        </mxCell>
        <mxCell id="iy436ZLBz4zsPdI52_lR-5" value="nilai &amp;lt; 85" style="strokeWidth=2;html=1;shape=mxgraph.flowchart.decision;whiteSpace=wrap;labelBackgroundColor=none;fillColor=#182E3E;strokeColor=#FFFFFF;fontColor=#FFFFFF;" vertex="1" parent="WIyWlLk6GJQsqaUBKTNV-1">
          <mxGeometry x="330" y="560" width="150" height="110" as="geometry" />
        </mxCell>
        <mxCell id="iy436ZLBz4zsPdI52_lR-18" style="edgeStyle=orthogonalEdgeStyle;rounded=0;orthogonalLoop=1;jettySize=auto;html=1;exitX=0.5;exitY=1;exitDx=0;exitDy=0;exitPerimeter=0;entryX=0.5;entryY=0;entryDx=0;entryDy=0;strokeColor=#23445D;" edge="1" parent="WIyWlLk6GJQsqaUBKTNV-1" source="iy436ZLBz4zsPdI52_lR-6" target="iy436ZLBz4zsPdI52_lR-9">
          <mxGeometry relative="1" as="geometry" />
        </mxCell>
        <mxCell id="iy436ZLBz4zsPdI52_lR-6" value="nilai &amp;gt;= 85" style="strokeWidth=2;html=1;shape=mxgraph.flowchart.decision;whiteSpace=wrap;labelBackgroundColor=none;fillColor=#182E3E;strokeColor=#FFFFFF;fontColor=#FFFFFF;" vertex="1" parent="WIyWlLk6GJQsqaUBKTNV-1">
          <mxGeometry x="330" y="730" width="150" height="110" as="geometry" />
        </mxCell>
        <mxCell id="iy436ZLBz4zsPdI52_lR-28" style="edgeStyle=elbowEdgeStyle;rounded=0;orthogonalLoop=1;jettySize=auto;html=1;exitX=1;exitY=0.5;exitDx=0;exitDy=0;strokeColor=#23445D;" edge="1" parent="WIyWlLk6GJQsqaUBKTNV-1" source="iy436ZLBz4zsPdI52_lR-7">
          <mxGeometry relative="1" as="geometry">
            <mxPoint x="770" y="455" as="targetPoint" />
          </mxGeometry>
        </mxCell>
        <mxCell id="iy436ZLBz4zsPdI52_lR-7" value="nilai = C" style="rounded=1;whiteSpace=wrap;html=1;absoluteArcSize=1;arcSize=14;strokeWidth=2;labelBackgroundColor=none;fillColor=#182E3E;strokeColor=#FFFFFF;fontColor=#FFFFFF;" vertex="1" parent="WIyWlLk6GJQsqaUBKTNV-1">
          <mxGeometry x="550" y="427.5" width="120" height="55" as="geometry" />
        </mxCell>
        <mxCell id="iy436ZLBz4zsPdI52_lR-29" style="edgeStyle=elbowEdgeStyle;rounded=0;orthogonalLoop=1;jettySize=auto;html=1;exitX=1;exitY=0.5;exitDx=0;exitDy=0;strokeColor=#23445D;" edge="1" parent="WIyWlLk6GJQsqaUBKTNV-1" source="iy436ZLBz4zsPdI52_lR-8">
          <mxGeometry relative="1" as="geometry">
            <mxPoint x="770" y="615" as="targetPoint" />
          </mxGeometry>
        </mxCell>
        <mxCell id="iy436ZLBz4zsPdI52_lR-8" value="nilai = B" style="rounded=1;whiteSpace=wrap;html=1;absoluteArcSize=1;arcSize=14;strokeWidth=2;labelBackgroundColor=none;fillColor=#182E3E;strokeColor=#FFFFFF;fontColor=#FFFFFF;" vertex="1" parent="WIyWlLk6GJQsqaUBKTNV-1">
          <mxGeometry x="550" y="587.5" width="120" height="55" as="geometry" />
        </mxCell>
        <mxCell id="iy436ZLBz4zsPdI52_lR-19" style="edgeStyle=orthogonalEdgeStyle;rounded=0;orthogonalLoop=1;jettySize=auto;html=1;exitX=0.5;exitY=1;exitDx=0;exitDy=0;entryX=0.5;entryY=0;entryDx=0;entryDy=0;strokeColor=#23445D;" edge="1" parent="WIyWlLk6GJQsqaUBKTNV-1" source="iy436ZLBz4zsPdI52_lR-9" target="iy436ZLBz4zsPdI52_lR-10">
          <mxGeometry relative="1" as="geometry" />
        </mxCell>
        <mxCell id="iy436ZLBz4zsPdI52_lR-9" value="nilai = A" style="rounded=1;whiteSpace=wrap;html=1;absoluteArcSize=1;arcSize=14;strokeWidth=2;labelBackgroundColor=none;fillColor=#182E3E;strokeColor=#FFFFFF;fontColor=#FFFFFF;" vertex="1" parent="WIyWlLk6GJQsqaUBKTNV-1">
          <mxGeometry x="345" y="890" width="120" height="55" as="geometry" />
        </mxCell>
        <mxCell id="iy436ZLBz4zsPdI52_lR-10" value="OUTPUT hasil nilai" style="shape=parallelogram;html=1;strokeWidth=2;perimeter=parallelogramPerimeter;whiteSpace=wrap;rounded=1;arcSize=12;size=0.23;labelBackgroundColor=none;fillColor=#182E3E;strokeColor=#FFFFFF;fontColor=#FFFFFF;" vertex="1" parent="WIyWlLk6GJQsqaUBKTNV-1">
          <mxGeometry x="310" y="1000" width="190" height="60" as="geometry" />
        </mxCell>
        <mxCell id="iy436ZLBz4zsPdI52_lR-12" value="END" style="strokeWidth=2;html=1;shape=mxgraph.flowchart.terminator;whiteSpace=wrap;labelBackgroundColor=none;fillColor=#182E3E;strokeColor=#FFFFFF;fontColor=#FFFFFF;" vertex="1" parent="WIyWlLk6GJQsqaUBKTNV-1">
          <mxGeometry x="315" y="1100" width="180" height="60" as="geometry" />
        </mxCell>
        <mxCell id="iy436ZLBz4zsPdI52_lR-14" style="edgeStyle=orthogonalEdgeStyle;rounded=0;orthogonalLoop=1;jettySize=auto;html=1;exitX=0.5;exitY=1;exitDx=0;exitDy=0;entryX=0.5;entryY=0;entryDx=0;entryDy=0;entryPerimeter=0;strokeColor=#23445D;" edge="1" parent="WIyWlLk6GJQsqaUBKTNV-1" source="iy436ZLBz4zsPdI52_lR-1" target="iy436ZLBz4zsPdI52_lR-2">
          <mxGeometry relative="1" as="geometry" />
        </mxCell>
        <mxCell id="iy436ZLBz4zsPdI52_lR-15" style="edgeStyle=orthogonalEdgeStyle;rounded=0;orthogonalLoop=1;jettySize=auto;html=1;exitX=0.5;exitY=1;exitDx=0;exitDy=0;exitPerimeter=0;entryX=0.5;entryY=0;entryDx=0;entryDy=0;entryPerimeter=0;strokeColor=#23445D;" edge="1" parent="WIyWlLk6GJQsqaUBKTNV-1" source="iy436ZLBz4zsPdI52_lR-2" target="iy436ZLBz4zsPdI52_lR-4">
          <mxGeometry relative="1" as="geometry" />
        </mxCell>
        <mxCell id="iy436ZLBz4zsPdI52_lR-16" style="edgeStyle=orthogonalEdgeStyle;rounded=0;orthogonalLoop=1;jettySize=auto;html=1;exitX=0.5;exitY=1;exitDx=0;exitDy=0;exitPerimeter=0;entryX=0.5;entryY=0;entryDx=0;entryDy=0;entryPerimeter=0;strokeColor=#23445D;" edge="1" parent="WIyWlLk6GJQsqaUBKTNV-1" source="iy436ZLBz4zsPdI52_lR-4" target="iy436ZLBz4zsPdI52_lR-5">
          <mxGeometry relative="1" as="geometry" />
        </mxCell>
        <mxCell id="iy436ZLBz4zsPdI52_lR-17" style="edgeStyle=orthogonalEdgeStyle;rounded=0;orthogonalLoop=1;jettySize=auto;html=1;exitX=0.5;exitY=1;exitDx=0;exitDy=0;exitPerimeter=0;entryX=0.5;entryY=0;entryDx=0;entryDy=0;entryPerimeter=0;strokeColor=#23445D;" edge="1" parent="WIyWlLk6GJQsqaUBKTNV-1" source="iy436ZLBz4zsPdI52_lR-5" target="iy436ZLBz4zsPdI52_lR-6">
          <mxGeometry relative="1" as="geometry" />
        </mxCell>
        <mxCell id="iy436ZLBz4zsPdI52_lR-21" style="edgeStyle=orthogonalEdgeStyle;rounded=0;orthogonalLoop=1;jettySize=auto;html=1;exitX=0.5;exitY=1;exitDx=0;exitDy=0;entryX=0.5;entryY=0;entryDx=0;entryDy=0;entryPerimeter=0;strokeColor=#23445D;" edge="1" parent="WIyWlLk6GJQsqaUBKTNV-1" source="iy436ZLBz4zsPdI52_lR-10" target="iy436ZLBz4zsPdI52_lR-12">
          <mxGeometry relative="1" as="geometry" />
        </mxCell>
        <mxCell id="iy436ZLBz4zsPdI52_lR-30" value="Ya" style="text;strokeColor=none;align=center;fillColor=none;html=1;verticalAlign=middle;whiteSpace=wrap;rounded=0;fontColor=#000000;" vertex="1" parent="WIyWlLk6GJQsqaUBKTNV-1">
          <mxGeometry x="480" y="280" width="60" height="20" as="geometry" />
        </mxCell>
        <mxCell id="iy436ZLBz4zsPdI52_lR-32" value="Ya" style="text;strokeColor=none;align=center;fillColor=none;html=1;verticalAlign=middle;whiteSpace=wrap;rounded=0;fontColor=#000000;" vertex="1" parent="WIyWlLk6GJQsqaUBKTNV-1">
          <mxGeometry x="480" y="440" width="60" height="20" as="geometry" />
        </mxCell>
        <mxCell id="iy436ZLBz4zsPdI52_lR-34" value="Ya" style="text;strokeColor=none;align=center;fillColor=none;html=1;verticalAlign=middle;whiteSpace=wrap;rounded=0;fontColor=#000000;" vertex="1" parent="WIyWlLk6GJQsqaUBKTNV-1">
          <mxGeometry x="480" y="600" width="60" height="20" as="geometry" />
        </mxCell>
        <mxCell id="iy436ZLBz4zsPdI52_lR-36" value="Tidak" style="text;strokeColor=none;align=center;fillColor=none;html=1;verticalAlign=middle;whiteSpace=wrap;rounded=0;fontColor=#000000;" vertex="1" parent="WIyWlLk6GJQsqaUBKTNV-1">
          <mxGeometry x="360" y="360" width="40" height="20" as="geometry" />
        </mxCell>
        <mxCell id="iy436ZLBz4zsPdI52_lR-37" value="Tidak" style="text;strokeColor=none;align=center;fillColor=none;html=1;verticalAlign=middle;whiteSpace=wrap;rounded=0;fontColor=#000000;" vertex="1" parent="WIyWlLk6GJQsqaUBKTNV-1">
          <mxGeometry x="360" y="520" width="40" height="20" as="geometry" />
        </mxCell>
        <mxCell id="iy436ZLBz4zsPdI52_lR-38" value="Tidak" style="text;strokeColor=none;align=center;fillColor=none;html=1;verticalAlign=middle;whiteSpace=wrap;rounded=0;fontColor=#000000;" vertex="1" parent="WIyWlLk6GJQsqaUBKTNV-1">
          <mxGeometry x="360" y="680" width="40" height="20" as="geometry" />
        </mxCell>
      </root>
    </mxGraphModel>
  </diagram>
</mxfile>
